HIERARCHY
ROOT hip
{
	OFFSET 0.000000 0.000000 0.000000 
	CHANNELS 6 Xposition Yposition Zposition Xrotation Zrotation Yrotation
	JOINT abdomen
	{
		OFFSET 0.000000 3.402643 0.000000 
		CHANNELS 3 Xrotation Zrotation Yrotation
		JOINT chest
		{
			OFFSET 0.000000 8.438565 -0.680529 
			CHANNELS 3 Xrotation Zrotation Yrotation
			JOINT neck
			{
				OFFSET 0.000000 10.207942 -0.272212 
				CHANNELS 3 Xrotation Zrotation Yrotation
				JOINT head
				{
					OFFSET 0.000000 3.130431 0.000000 
					CHANNELS 3 Xrotation Zrotation Yrotation
					End Site
					{
						OFFSET 0.000000 3.130435 0.000000 
					}
				}
			}
			JOINT lCollar
			{
				OFFSET 3.470700 6.669187 -0.816635 
				CHANNELS 3 Yrotation Zrotation Xrotation
				JOINT lShldr
				{
					OFFSET 3.198488 0.000000 0.000000 
					CHANNELS 3 Zrotation Yrotation Xrotation
					JOINT lForeArm
					{
						OFFSET 10.139888 0.000000 0.000000 
						CHANNELS 3 Yrotation Zrotation Xrotation
						JOINT lHand
						{
							OFFSET 8.370511 0.000000 0.000000 
							CHANNELS 3 Zrotation Yrotation Xrotation
							End Site
							{
								OFFSET 4.083176 0.000000 0.000000 
							}
						}
					}
				}
			}
			JOINT rCollar
			{
				OFFSET -3.470700 6.669187 -0.816635 
				CHANNELS 3 Yrotation Zrotation Xrotation
				JOINT rShldr
				{
					OFFSET -3.198488 0.000000 0.000000 
					CHANNELS 3 Zrotation Yrotation Xrotation
					JOINT rForeArm
					{
						OFFSET -10.139888 0.000000 0.000000 
						CHANNELS 3 Yrotation Zrotation Xrotation
						JOINT rHand
						{
							OFFSET -8.370511 0.000000 0.000000 
							CHANNELS 3 Zrotation Yrotation Xrotation
							End Site
							{
								OFFSET -4.083176 0.000000 0.000000 
							}
						}
					}
				}
			}
		}
	}
	JOINT lThigh
	{
		OFFSET 5.308129 -1.633274 1.361059 
		CHANNELS 3 Xrotation Zrotation Yrotation
		JOINT lShin
		{
			OFFSET -2.041588 -20.007561 0.000000 
			CHANNELS 3 Xrotation Zrotation Yrotation
			JOINT lFoot
			{
				OFFSET 0.000000 -19.190928 -1.224953 
				CHANNELS 3 Xrotation Yrotation Zrotation
				End Site
				{
					OFFSET 0.000000 -2.449906 4.627600 
				}
			}
		}
	}
	JOINT rThigh
	{
		OFFSET -5.308129 -1.633274 1.361059 
		CHANNELS 3 Xrotation Zrotation Yrotation
		JOINT rShin
		{
			OFFSET 2.041588 -20.007561 0.000000 
			CHANNELS 3 Xrotation Zrotation Yrotation
			JOINT rFoot
			{
				OFFSET 0.000000 -19.190928 -1.224953 
				CHANNELS 3 Xrotation Yrotation Zrotation
				End Site
				{
					OFFSET 0.000000 -2.449906 4.627600 
				}
			}
		}
	}
}
MOTION
Frames: 20
Frame Time: 0.033333
0.654296 48.683025 0.835274 0.312716 0.126953 0.097678 0.000000 0.000000 0.000000 -10.615297 -1.044194 -2.139029 1.780787 -1.122969 -0.674082 8.000440 1.415912 -0.693389 -3.521967 9.154817 6.304141 -4.926455 11.456916 -45.867729 -18.238094 7.580121 29.118158 -0.974470 9.796710 -8.353269 3.089181 -14.089146 8.026228 9.396389 -5.387043 -41.301338 11.502468 -9.266002 70.838654 3.225559 -6.582042 -8.341343 -0.361516 6.833845 9.304584 7.773134 -3.337823 -7.891357 -3.920498 0.263281 -2.249469 0.731041 -8.667968 -15.013565 6.527053 1.948680 -0.836841 -2.798215 -0.091134 -0.205805 
0.656667 48.686344 0.844407 0.283453 0.097656 0.146501 0.000000 0.000000 0.000000 -10.614781 -1.034402 -2.188025 1.859372 -1.162029 -0.674086 7.932438 1.367085 -0.703158 -3.521967 9.154817 6.304141 -5.058112 11.434940 -46.116875 -18.360754 7.673676 29.098238 -0.952251 9.849275 -8.349529 3.089181 -14.089146 8.026228 9.422297 -5.422680 -41.228889 11.488717 -9.253191 70.624611 3.457346 -6.569653 -8.330249 -0.322547 6.866787 9.326120 7.756225 -3.348197 -7.978913 -3.880762 0.261355 -2.250062 0.760355 -8.639340 -15.011726 6.524864 1.938183 -0.983670 -2.731592 -0.086684 -0.119574 
0.671097 48.698170 0.856328 0.234884 0.166015 0.175809 0.000000 0.000000 0.000000 -10.592076 -1.112463 -2.197799 1.770557 -1.132741 -0.644791 8.109264 1.357331 -0.664108 -3.521967 9.154817 6.304141 -5.124488 11.486811 -46.065979 -18.362768 7.659772 29.056223 -0.861000 9.941715 -8.362536 3.089181 -14.089146 8.026228 9.513533 -5.437821 -41.348537 11.530493 -9.320155 70.432602 3.543995 -6.626502 -8.332565 -0.186435 6.760736 9.249357 7.586369 -3.327575 -7.937128 -3.861020 0.243926 -2.214923 0.731660 -8.759020 -15.099466 6.746281 1.969700 -0.863037 -2.684264 -0.074194 -0.040676 
0.677531 48.685875 0.860586 0.235007 0.195311 0.185579 0.000000 0.000000 0.000000 -10.630381 -1.112433 -2.236855 1.673023 -1.279232 -0.576464 8.292626 1.523332 -0.673850 -3.521967 9.154817 6.304141 -5.152321 11.524082 -46.029663 -18.362768 7.659772 29.056223 -0.958552 9.947145 -8.359980 3.089181 -14.089146 8.026228 9.427793 -5.437420 -41.307762 11.502692 -9.310216 70.307449 3.274558 -6.526383 -8.325590 -0.254715 6.742417 9.258496 7.744871 -3.347795 -8.017217 -3.933700 0.254973 -2.178949 0.866690 -8.742603 -15.090337 6.483051 1.960206 -0.848756 -2.739308 -0.101888 -0.189012 
0.678569 48.693924 0.864508 0.205920 0.214842 0.224644 0.000000 0.000000 0.000000 -10.627485 -1.161185 -2.285676 1.595646 -1.376886 -0.566712 8.426970 1.630733 -0.713158 -3.521967 9.154817 6.304141 -5.112100 11.524026 -46.033813 -18.373352 7.669897 29.036514 -0.969803 9.955387 -8.361583 3.089181 -14.089146 8.026228 9.431476 -5.492993 -41.069847 11.435171 -9.230921 70.263412 3.292587 -6.513901 -8.327410 -0.234486 6.735708 9.248013 7.811801 -3.337851 -8.020663 -3.921747 0.249737 -2.202242 0.888045 -8.797110 -15.144090 6.528535 1.978446 -0.845401 -2.721585 -0.094990 -0.112401 
0.680747 48.695343 0.853525 0.274197 0.234374 0.185585 0.000000 0.000000 0.000000 -10.733194 -1.219757 -2.256387 1.429826 -1.328053 -0.595996 8.641756 1.591667 -0.732682 -3.521967 9.154817 6.304141 -5.043517 11.510743 -46.034592 -18.362118 7.648158 28.965651 -0.758238 9.956935 -8.372830 3.089181 -14.089146 8.026228 9.451737 -5.519188 -41.170048 11.510410 -9.275748 70.611229 3.532613 -6.549278 -8.327942 -0.146978 6.685022 9.263666 7.424214 -3.387092 -7.948972 -3.877202 0.246603 -2.118658 0.642520 -8.839825 -15.163610 6.870193 1.958905 -0.817475 -2.732546 -0.103955 -0.010659 
0.689591 48.683983 0.830063 0.391449 0.322265 0.146537 0.000000 0.000000 0.000000 -10.856671 -1.336898 -2.207797 1.244312 -1.230391 -0.644802 8.713927 1.347555 -0.703160 -3.521967 9.154817 6.304141 -4.941867 11.504208 -46.040764 -18.355160 7.648069 28.797680 -0.629262 9.886924 -8.361748 3.089181 -14.089146 8.026228 9.456465 -5.516935 -41.305824 11.549096 -9.311914 70.733223 3.639194 -6.741269 -8.340031 -0.361958 6.589508 9.150947 7.566596 -3.356768 -7.839672 -3.954740 0.238017 -2.122675 0.575502 -8.924950 -15.169077 6.709433 1.947725 -0.787649 -2.866823 -0.095955 -0.186785 
0.688222 48.690128 0.819700 0.430433 0.312499 0.136770 0.000000 0.000000 0.000000 -10.944486 -1.327122 -2.227322 1.283514 -1.171792 -0.683850 8.559799 1.191319 -0.693413 -3.521967 9.154817 6.304141 -4.873070 11.485444 -46.109253 -18.389963 7.685491 29.027304 -0.798942 10.039750 -8.368928 3.089181 -14.089146 8.026228 9.449178 -5.517006 -41.381592 11.584581 -9.381845 70.723091 3.537178 -6.588493 -8.321129 -0.439946 6.608109 9.152815 7.641670 -3.329029 -7.814351 -3.961956 0.241985 -2.173961 0.496759 -8.922556 -15.157849 6.754054 1.969081 -0.784498 -2.789875 -0.086974 -0.140844 
0.695978 48.690128 0.808148 0.489125 0.380858 0.127015 0.000000 0.000000 0.000000 -11.019194 -1.414946 -2.227330 1.195974 -1.201086 -0.683853 8.519115 1.288963 -0.712930 -3.521967 9.154817 6.304141 -4.710873 11.502552 -45.912128 -18.328341 7.630010 28.886963 -0.704864 9.935059 -8.364770 3.089181 -14.089146 8.026228 9.381135 -5.529203 -41.478718 11.638500 -9.405246 71.193703 3.873341 -6.424248 -8.295022 -0.361924 6.477213 9.074712 7.329692 -3.319589 -7.764119 -3.725617 0.260911 -2.207139 0.233767 -9.060021 -15.203188 7.193481 1.949435 -0.682936 -2.801630 -0.083941 -0.002570 
0.698863 48.679722 0.778358 0.615917 0.400390 0.097722 0.000000 0.000000 0.000000 -11.184317 -1.444231 -2.217569 1.107447 -1.181561 -0.664324 8.489559 1.328025 -0.703162 -3.521967 9.154817 6.304141 -4.562524 11.504762 -45.718952 -18.272848 7.571976 28.698057 -0.652915 9.844020 -8.365648 3.089181 -14.089146 8.026228 9.338628 -5.516092 -41.453434 11.659971 -9.427564 71.060036 3.881626 -6.285573 -8.279387 -0.605854 6.427278 8.985413 7.465843 -3.251022 -7.662791 -3.850046 0.228365 -2.200211 0.155119 -9.038736 -15.151091 6.978263 1.929975 -0.763971 -2.946274 -0.072550 -0.177330 
0.691677 48.686817 0.793017 0.489365 0.302732 0.205127 0.000000 0.000000 0.000000 -11.067007 -1.346491 -2.383531 1.009678 -1.171796 -0.664323 8.460488 1.328028 -0.693400 -3.521967 9.154817 6.304141 -4.561149 11.490421 -45.816078 -18.303146 7.616786 29.047134 -0.836778 9.846522 -8.358533 3.089181 -14.089146 8.026228 9.297175 -5.556307 -41.401711 11.677174 -9.440883 71.075066 3.627422 -6.467382 -8.316511 -0.547442 6.569374 9.062746 7.653435 -3.271203 -7.831855 -3.910161 0.255854 -2.241940 0.418731 -8.910607 -15.135976 6.762783 1.949227 -0.872617 -2.819619 -0.081935 -0.128283 
0.699433 48.689182 0.786021 0.509186 0.322263 0.244192 0.000000 0.000000 0.000000 -11.084560 -1.365956 -2.432346 0.920918 -1.113209 -0.654553 8.548945 1.318268 -0.673874 -3.521967 9.154817 6.304141 -4.529199 11.458455 -45.966164 -18.351954 7.645772 29.045734 -0.851043 9.696211 -8.344111 3.089181 -14.089146 8.026228 9.249948 -5.593675 -41.281292 11.674038 -9.419800 71.070282 3.407068 -6.498078 -8.320209 -0.576289 6.517019 9.039948 7.625115 -3.239671 -7.779665 -3.902048 0.241165 -2.184559 0.370232 -8.991585 -15.190547 6.860697 1.988279 -0.787501 -2.819555 -0.094183 -0.101647 
0.698918 48.683983 0.798697 0.323224 0.234373 0.234413 0.000000 0.000000 0.000000 -10.855573 -1.219568 -2.471390 0.842904 -1.122974 -0.654554 8.616961 1.347563 -0.673871 -3.521967 9.154817 6.304141 -4.538620 11.427032 -46.017551 -18.305193 7.646033 29.437111 -0.656187 9.754454 -8.349273 3.089181 -14.089146 8.026228 9.206685 -5.575883 -41.322243 11.701822 -9.464416 70.983154 3.208710 -6.535183 -8.337191 -0.410685 6.617057 9.094083 7.733201 -3.249593 -7.913873 -3.952668 0.250077 -2.181103 0.662598 -8.851661 -15.145082 6.624510 1.968023 -0.869700 -2.760770 -0.082526 -0.138997 
0.709417 48.680199 0.800160 0.157049 0.234374 0.195351 0.000000 0.000000 0.000000 -10.603132 -1.190307 -2.461623 0.754822 -1.122976 -0.644790 8.665906 1.357331 -0.664107 -3.521967 9.154817 6.304141 -4.531223 11.449048 -45.908920 -18.293966 7.628160 29.396418 -0.424347 9.877755 -8.365663 3.089181 -14.089146 8.026228 9.130320 -5.541630 -41.445091 11.716955 -9.466492 71.275047 3.215832 -6.583458 -8.340222 -0.195713 6.585243 9.090066 7.656950 -3.230603 -7.898742 -4.022252 0.232553 -2.135887 0.798115 -8.887529 -15.228873 6.725022 2.027741 -0.744687 -2.789640 -0.087934 -0.151777 
0.711075 48.684925 0.794239 0.137218 0.195312 0.146517 0.000000 0.000000 0.000000 -10.537482 -1.131776 -2.451658 0.793995 -1.132741 -0.644791 8.567321 1.396385 -0.683629 -3.521967 9.154817 6.304141 -4.514662 11.439820 -46.033634 -18.375328 7.688714 29.514421 -0.351606 10.027015 -8.380135 3.089181 -14.089146 8.026228 9.091485 -5.540348 -41.391685 11.685354 -9.420983 71.201691 2.989742 -6.693522 -8.365597 -0.215394 6.647692 9.143644 7.733670 -3.249695 -7.894389 -3.990451 0.230493 -2.168328 0.808622 -8.842763 -15.176209 6.678733 2.008935 -0.718860 -2.721143 -0.099845 -0.124914 
0.715994 48.680672 0.774784 0.205288 0.175781 0.068389 0.000000 0.000000 0.000000 -10.550261 -1.083032 -2.402837 0.637335 -1.113213 -0.635025 8.616624 1.396391 -0.664103 -3.521967 9.154817 6.304141 -4.544210 11.445638 -46.316154 -18.510077 7.812758 30.043478 -0.573022 10.201632 -8.385345 3.089181 -14.089146 8.026228 9.026805 -5.564481 -41.297993 11.622403 -9.369770 70.984352 2.610400 -6.825770 -8.391045 -0.322733 6.664206 9.145587 7.790670 -3.241979 -7.829666 -4.142624 0.230760 -2.094882 0.691330 -8.839669 -15.184033 6.688001 2.038121 -0.648837 -2.711935 -0.063274 -0.183809 
0.713024 48.688225 0.734616 0.410156 0.136719 0.000000 0.000000 0.000000 0.000000 -10.727949 -1.063563 -2.344252 0.511178 -1.132736 -0.664319 8.703800 1.396382 -0.693391 -3.521967 9.154817 6.304141 -4.510223 11.457381 -46.348328 -18.564749 7.848226 29.764898 -0.264433 9.901692 -8.377308 3.089181 -14.089146 8.026228 9.042459 -5.604834 -41.272312 11.622630 -9.344842 71.118851 2.715461 -6.938936 -8.397894 -0.586496 6.717600 9.111819 7.823641 -3.240632 -7.793037 -4.014141 0.270784 -2.183281 0.272273 -8.835007 -15.108456 6.994134 2.006798 -0.671823 -2.644497 -0.095790 -0.038873 
0.726682 48.672619 0.699619 0.409507 0.380859 -0.097654 0.000000 0.000000 0.000000 -10.689992 -1.366191 -2.188275 0.335550 -1.298760 -0.586230 8.757533 1.679546 -0.742441 -3.521967 9.154817 6.304141 -4.348309 11.504863 -46.488438 -18.663797 7.966284 30.218061 -0.297086 9.807742 -8.364872 3.089181 -14.089146 8.026228 9.063674 -5.632206 -41.536999 11.756190 -9.426004 72.001030 3.440344 -7.034359 -8.376632 -0.508331 6.441608 9.005043 7.587214 -3.269146 -7.583498 -4.033465 0.233260 -2.114441 0.173980 -9.095609 -15.195023 7.124780 1.989910 -0.480030 -2.906528 -0.070600 -0.218669 
0.716072 48.672157 0.696496 0.380460 0.292968 -0.078124 0.000000 0.000000 0.000000 -10.682395 -1.297865 -2.207792 0.119157 -1.298775 -0.517888 8.852101 1.943201 -0.732663 -3.521967 9.154817 6.304141 -4.219044 11.666991 -46.162560 -18.539171 7.882679 30.398382 0.975220 9.188784 -8.362635 3.089181 -14.089146 8.026228 9.112286 -5.703115 -41.594589 11.785414 -9.475122 72.055511 3.397441 -6.744764 -8.358474 -0.566466 6.537543 9.050993 7.765089 -3.240488 -7.633226 -4.070680 0.222624 -2.129717 0.281757 -8.979627 -15.148854 6.932333 1.989420 -0.500618 -2.837318 -0.084059 -0.224065 
0.684616 48.667892 0.696346 0.625113 -0.166016 -0.039091 0.000000 0.000000 0.000000 -11.038672 -0.868413 -2.344073 0.305261 -1.386664 -0.508137 8.609425 2.314216 -0.820826 -3.521967 9.154817 6.304141 -4.101336 11.828073 -45.633244 -18.433773 7.753691 29.765179 2.788191 8.688436 -8.383753 3.089181 -14.089146 8.026228 9.113508 -5.768604 -41.578037 11.780012 -9.486059 71.928146 3.514115 -6.945530 -8.362259 -1.073923 7.113621 9.336747 8.362324 -3.290135 -8.045095 -4.383278 0.244235 -2.037415 0.233283 -8.413275 -14.830617 6.460241 1.978383 -0.946783 -2.680832 -0.091177 -0.205647 
